<svg width="20" height="19" viewBox="0 0 20 19" fill="none" xmlns="http://www.w3.org/2000/svg">
<path d="M10.0005 3.70312L5.00049 0.816374V6.58988L10.0005 3.70312ZM7.00049 15.2031C3.96292 15.2031 1.50049 12.7407 1.50049 9.70312H0.500488C0.500488 13.293 3.41064 16.2031 7.00049 16.2031V15.2031ZM1.50049 9.70312C1.50049 6.66556 3.96292 4.20312 7.00049 4.20312V3.20312C3.41064 3.20312 0.500488 6.11327 0.500488 9.70312H1.50049Z" fill="white"/>
<path d="M10.0005 15.7031L15.0005 18.5899V12.8164L10.0005 15.7031ZM13.0005 4.20312C16.0381 4.20312 18.5005 6.66556 18.5005 9.70312H19.5005C19.5005 6.11327 16.5903 3.20312 13.0005 3.20312V4.20312ZM18.5005 9.70312C18.5005 12.7407 16.0381 15.2031 13.0005 15.2031V16.2031C16.5903 16.2031 19.5005 13.293 19.5005 9.70312H18.5005Z" fill="white"/>
</svg>
